<svg xmlns="http://www.w3.org/2000/svg" viewBox="0 0 1200 630" width="1200" height="630">
  <defs>
    <style>
      .display { font-family: Georgia, 'Iowan Old Style', serif; }
      .body { font-family: -apple-system, BlinkMacSystemFont, system-ui, sans-serif; }
    </style>
    <filter id="grain">
      <feTurbulence type="fractalNoise" baseFrequency="0.85" numOctaves="2"/>
      <feColorMatrix values="0 0 0 0 0.1  0 0 0 0 0.08  0 0 0 0 0.05  0 0 0 0.06 0"/>
    </filter>
  </defs>

  <!-- Paper background -->
  <rect width="1200" height="630" fill="#f4ecd8"/>
  <rect width="1200" height="630" fill="url(#grain)" opacity="0.6"/>

  <!-- Monochrome top rule -->
  <rect x="0" y="0" width="1200" height="6" fill="#1a1612"/>

  <!-- Logomark -->
  <g transform="translate(80, 50)" fill="none" stroke="#1a1612" stroke-width="6">
    <path d="M 10 50 A 40 40 0 0 1 90 50"/>
    <path d="M 18 50 A 32 32 0 0 1 82 50"/>
    <path d="M 26 50 A 24 24 0 0 1 74 50"/>
    <path d="M 34 50 A 16 16 0 0 1 66 50"/>
    <path d="M 42 50 A 8 8 0 0 1 58 50"/>
  </g>
  <text x="195" y="100" class="display" font-style="italic" font-size="42" fill="#1a1612" letter-spacing="-1">rainbow</text>

  <!-- Section meta -->
  <text x="80" y="200" class="body" font-size="14" font-weight="500" letter-spacing="2.5" fill="#1a1612">№ 01  ·  A MANIFESTO</text>

  <!-- Big headline -->
  <text x="80" y="320" class="display" font-size="120" font-weight="400" fill="#1a1612" letter-spacing="-4">Take</text>
  <text x="160" y="430" class="display" font-size="120" font-weight="400" font-style="italic" fill="#1a1612" letter-spacing="-4">back</text>
  <text x="362" y="430" class="display" font-size="120" font-weight="400" fill="#1a1612" letter-spacing="-4"> your</text>
  <text x="80" y="540" class="display" font-size="120" font-weight="400" fill="#1a1612" letter-spacing="-4">digital life.</text>

  <!-- Tagline -->
  <text x="80" y="600" class="body" font-size="18" font-weight="500" letter-spacing="2" fill="#7a6e5c">RAINBOW.ROCKS  ·  OPEN SOURCE  ·  APACHE 2.0</text>
</svg>
